<svg xmlns="http://www.w3.org/2000/svg" xmlns:xlink="http://www.w3.org/1999/xlink" width="1920" zoomAndPan="magnify" viewBox="0 0 1440 809.999993" height="1080" preserveAspectRatio="xMidYMid meet" version="1.0"><defs><clipPath id="6106c128d4"><path d="M 473.144531 243 L 966.644531 243 L 966.644531 567 L 473.144531 567 Z M 473.144531 243 " clip-rule="nonzero"/></clipPath></defs><path fill="#ffffff" d="M 578.996094 412.375 L 578.996094 495.035156 C 579.015625 519.449219 637.246094 546.652344 720.792969 546.652344 C 804.335938 546.652344 862.570312 519.449219 862.585938 495.03125 L 862.585938 399.304688 L 705.519531 469.199219 L 578.996094 412.375 " fill-opacity="1" fill-rule="nonzero"/><g clip-path="url(#6106c128d4)"><path fill="#ffffff" d="M 756.304688 356.066406 C 752.832031 356.066406 750.019531 353.257812 750.019531 349.78125 C 750.019531 346.3125 752.832031 343.5 756.304688 343.5 L 915.835938 343.5 C 915.078125 344.6875 914.628906 346.085938 914.628906 347.601562 L 914.628906 356.066406 Z M 966.789062 541.652344 C 960.019531 485.222656 937.988281 458.792969 929.953125 450.859375 L 929.953125 347.601562 C 929.953125 346.085938 929.496094 344.6875 928.742188 343.5 L 928.746094 343.5 L 928.742188 343.496094 C 927.378906 341.363281 925.007812 339.9375 922.289062 339.9375 C 921.878906 339.9375 921.480469 339.996094 921.089844 340.058594 L 705.304688 243.144531 L 473.152344 346.464844 L 705.554688 450.84375 L 914.628906 357.796875 L 914.628906 450.859375 C 906.589844 458.792969 884.554688 485.222656 877.785156 541.652344 C 877.761719 541.871094 877.746094 542.089844 877.738281 542.308594 C 877.699219 543.464844 877.796875 549.539062 883.53125 555.46875 C 890.835938 563.027344 903.878906 566.855469 922.289062 566.855469 C 940.695312 566.855469 953.734375 563.027344 961.042969 555.472656 C 966.78125 549.539062 966.878906 543.464844 966.839844 542.308594 C 966.832031 542.089844 966.816406 541.871094 966.789062 541.652344 " fill-opacity="1" fill-rule="nonzero"/></g></svg>