<svg xmlns="http://www.w3.org/2000/svg" xmlns:xlink="http://www.w3.org/1999/xlink" width="1920" zoomAndPan="magnify" viewBox="0 0 1440 809.999993" height="1080" preserveAspectRatio="xMidYMid meet" version="1.0"><defs><clipPath id="0949c7ac68"><path d="M 531.558594 139 L 908.808594 139 L 908.808594 671 L 531.558594 671 Z M 531.558594 139 " clip-rule="nonzero"/></clipPath></defs><g clip-path="url(#0949c7ac68)"><path fill="#000000" d="M 720.183594 139.089844 C 616.179688 139.089844 531.558594 223.59375 531.558594 327.460938 C 531.558594 428.472656 705.695312 652.398438 713.101562 661.882812 L 720.183594 670.945312 L 727.269531 661.882812 C 734.675781 652.398438 908.808594 428.472656 908.808594 327.460938 C 908.808594 223.59375 824.191406 139.089844 720.183594 139.089844 Z M 720.183594 246.730469 C 764.761719 246.730469 801.023438 282.945312 801.023438 327.460938 C 801.023438 371.976562 764.761719 408.191406 720.183594 408.191406 C 675.609375 408.191406 639.347656 371.976562 639.347656 327.460938 C 639.347656 282.945312 675.609375 246.730469 720.183594 246.730469 Z M 720.183594 246.730469 " fill-opacity="1" fill-rule="nonzero"/></g></svg>