<svg xmlns="http://www.w3.org/2000/svg" xmlns:xlink="http://www.w3.org/1999/xlink" width="1920" zoomAndPan="magnify" viewBox="0 0 1440 809.999993" height="1080" preserveAspectRatio="xMidYMid meet" version="1.0"><defs><clipPath id="51d3d095be"><path d="M 637 139.460938 L 770 139.460938 L 770 260 L 637 260 Z M 637 139.460938 " clip-rule="nonzero"/></clipPath><clipPath id="cb4a603290"><path d="M 910 214 L 943.699219 214 L 943.699219 248 L 910 248 Z M 910 214 " clip-rule="nonzero"/></clipPath><clipPath id="7138288290"><path d="M 910 272 L 943.699219 272 L 943.699219 306 L 910 306 Z M 910 272 " clip-rule="nonzero"/></clipPath><clipPath id="b790d5e6d2"><path d="M 927 230 L 943.699219 230 L 943.699219 289 L 927 289 Z M 927 230 " clip-rule="nonzero"/></clipPath><clipPath id="7d0ca8fb12"><path d="M 495.949219 197 L 613 197 L 613 314 L 495.949219 314 Z M 495.949219 197 " clip-rule="nonzero"/></clipPath><clipPath id="0ec03d9908"><path d="M 529 355 L 828 355 L 828 670.460938 L 529 670.460938 Z M 529 355 " clip-rule="nonzero"/></clipPath><clipPath id="11d2328073"><path d="M 811 355 L 878 355 L 878 670.460938 L 811 670.460938 Z M 811 355 " clip-rule="nonzero"/></clipPath></defs><g clip-path="url(#51d3d095be)"><path fill="#ffffff" d="M 703.398438 259.828125 C 701.199219 259.828125 699.085938 258.957031 697.53125 257.398438 L 648.929688 208.796875 C 641.253906 201.148438 637.015625 190.941406 637.015625 180.078125 C 637.015625 169.214844 641.253906 159 648.941406 151.351562 C 656.546875 143.691406 666.746094 139.460938 677.632812 139.460938 C 687.136719 139.460938 696.148438 142.6875 703.398438 148.628906 C 710.660156 142.6875 719.671875 139.460938 729.171875 139.460938 C 740.058594 139.460938 750.257812 143.691406 757.898438 151.375 C 765.558594 159.011719 769.792969 169.207031 769.792969 180.078125 C 769.792969 190.949219 765.558594 201.148438 757.875 208.804688 L 754.945312 211.683594 L 709.257812 257.40625 C 707.714844 258.949219 705.605469 259.828125 703.398438 259.828125 Z M 677.632812 156.054688 C 671.203125 156.054688 665.179688 158.546875 660.679688 163.074219 C 656.117188 167.625 653.609375 173.65625 653.609375 180.078125 C 653.609375 186.5 656.117188 192.523438 660.65625 197.046875 L 703.398438 239.789062 L 746.199219 197.007812 C 750.6875 192.523438 753.195312 186.492188 753.195312 180.070312 C 753.195312 173.648438 750.6875 167.613281 746.160156 163.09375 C 737.089844 153.988281 721.222656 154.007812 712.105469 163.09375 L 709.242188 165.929688 C 705.996094 169.148438 700.777344 169.148438 697.539062 165.929688 L 694.695312 163.109375 C 690.128906 158.554688 684.074219 156.054688 677.632812 156.054688 Z M 677.632812 156.054688 " fill-opacity="1" fill-rule="nonzero"/></g><g clip-path="url(#cb4a603290)"><path fill="#ffffff" d="M 935.742188 247.332031 C 931.152344 247.332031 927.445312 243.617188 927.445312 239.035156 C 927.445312 234.464844 923.726562 230.738281 919.144531 230.738281 C 914.558594 230.738281 910.847656 227.019531 910.847656 222.4375 C 910.847656 217.859375 914.558594 214.140625 919.144531 214.140625 C 932.871094 214.140625 944.039062 225.308594 944.039062 239.035156 C 944.039062 243.617188 940.332031 247.332031 935.742188 247.332031 Z M 935.742188 247.332031 " fill-opacity="1" fill-rule="nonzero"/></g><g clip-path="url(#7138288290)"><path fill="#ffffff" d="M 919.144531 305.417969 C 914.558594 305.417969 910.847656 301.703125 910.847656 297.121094 C 910.847656 292.539062 914.558594 288.824219 919.144531 288.824219 C 923.726562 288.824219 927.445312 285.097656 927.445312 280.523438 C 927.445312 275.945312 931.152344 272.226562 935.742188 272.226562 C 940.332031 272.226562 944.039062 275.945312 944.039062 280.523438 C 944.039062 294.25 932.871094 305.417969 919.144531 305.417969 Z M 919.144531 305.417969 " fill-opacity="1" fill-rule="nonzero"/></g><g clip-path="url(#b790d5e6d2)"><path fill="#ffffff" d="M 935.742188 288.824219 C 931.152344 288.824219 927.445312 285.105469 927.445312 280.523438 L 927.445312 239.035156 C 927.445312 234.453125 931.152344 230.738281 935.742188 230.738281 C 940.332031 230.738281 944.039062 234.453125 944.039062 239.035156 L 944.039062 280.523438 C 944.039062 285.105469 940.332031 288.824219 935.742188 288.824219 Z M 935.742188 288.824219 " fill-opacity="1" fill-rule="nonzero"/></g><path fill="#ffffff" d="M 919.144531 230.738281 L 902.550781 230.738281 C 897.960938 230.738281 894.253906 227.019531 894.253906 222.4375 C 894.253906 217.859375 897.960938 214.140625 902.550781 214.140625 L 919.144531 214.140625 C 923.734375 214.140625 927.445312 217.859375 927.445312 222.4375 C 927.445312 227.019531 923.734375 230.738281 919.144531 230.738281 Z M 919.144531 230.738281 " fill-opacity="1" fill-rule="nonzero"/><path fill="#ffffff" d="M 919.144531 305.417969 L 869.359375 305.417969 C 864.769531 305.417969 861.058594 301.703125 861.058594 297.121094 C 861.058594 292.539062 864.769531 288.824219 869.359375 288.824219 L 919.144531 288.824219 C 923.734375 288.824219 927.445312 292.539062 927.445312 297.121094 C 927.445312 301.703125 923.734375 305.417969 919.144531 305.417969 Z M 919.144531 305.417969 " fill-opacity="1" fill-rule="nonzero"/><path fill="#ffffff" d="M 902.550781 230.738281 C 897.960938 230.738281 894.253906 227.019531 894.253906 222.4375 L 894.253906 193.398438 C 894.253906 188.816406 897.960938 185.097656 902.550781 185.097656 C 907.140625 185.097656 910.847656 188.816406 910.847656 193.398438 L 910.847656 222.4375 C 910.847656 227.019531 907.140625 230.738281 902.550781 230.738281 Z M 902.550781 230.738281 " fill-opacity="1" fill-rule="nonzero"/><path fill="#ffffff" d="M 869.367188 230.738281 C 868.601562 230.738281 867.839844 230.628906 867.085938 230.414062 C 862.679688 229.152344 860.121094 224.5625 861.375 220.15625 L 869.671875 191.113281 C 870.933594 186.699219 875.574219 184.167969 879.929688 185.414062 C 884.335938 186.675781 886.890625 191.265625 885.640625 195.671875 L 877.339844 224.714844 C 876.296875 228.363281 872.976562 230.738281 869.367188 230.738281 Z M 869.367188 230.738281 " fill-opacity="1" fill-rule="nonzero"/><path fill="#ffffff" d="M 877.65625 201.695312 C 876.902344 201.695312 876.128906 201.585938 875.375 201.371094 C 870.96875 200.109375 868.421875 195.511719 869.683594 191.105469 C 871.125 186.0625 874.976562 172.652344 890.101562 172.652344 C 901.546875 172.652344 910.847656 181.960938 910.847656 193.398438 C 910.847656 197.976562 907.140625 201.695312 902.550781 201.695312 C 897.960938 201.695312 894.253906 197.976562 894.253906 193.398438 C 894.253906 191.105469 892.386719 189.246094 890.101562 189.246094 C 888.578125 189.246094 887.480469 189.246094 885.628906 195.6875 C 884.585938 199.320312 881.273438 201.695312 877.65625 201.695312 Z M 877.65625 201.695312 " fill-opacity="1" fill-rule="nonzero"/><path fill="#ffffff" d="M 869.359375 305.417969 C 867.234375 305.417969 865.109375 304.605469 863.492188 302.988281 L 855.195312 294.691406 C 851.949219 291.445312 851.949219 286.199219 855.195312 282.957031 C 858.4375 279.710938 863.683594 279.710938 866.925781 282.957031 L 875.226562 291.253906 C 878.46875 294.5 878.46875 299.742188 875.226562 302.988281 C 873.605469 304.605469 871.484375 305.417969 869.359375 305.417969 Z M 869.359375 305.417969 " fill-opacity="1" fill-rule="nonzero"/><path fill="#ffffff" d="M 869.359375 230.738281 L 844.464844 230.738281 C 839.875 230.738281 836.167969 227.019531 836.167969 222.4375 C 836.167969 217.859375 839.875 214.140625 844.464844 214.140625 L 869.359375 214.140625 C 873.945312 214.140625 877.65625 217.859375 877.65625 222.4375 C 877.65625 227.019531 873.945312 230.738281 869.359375 230.738281 Z M 869.359375 230.738281 " fill-opacity="1" fill-rule="nonzero"/><path fill="#ffffff" d="M 861.058594 297.121094 L 844.464844 297.121094 C 839.875 297.121094 836.167969 293.402344 836.167969 288.824219 C 836.167969 284.242188 839.875 280.523438 844.464844 280.523438 L 861.058594 280.523438 C 865.648438 280.523438 869.359375 284.242188 869.359375 288.824219 C 869.359375 293.402344 865.648438 297.121094 861.058594 297.121094 Z M 861.058594 297.121094 " fill-opacity="1" fill-rule="nonzero"/><path fill="#ffffff" d="M 844.464844 305.417969 L 811.273438 305.417969 C 806.683594 305.417969 802.972656 301.703125 802.972656 297.121094 L 802.972656 214.140625 C 802.972656 209.5625 806.683594 205.84375 811.273438 205.84375 L 844.464844 205.84375 C 849.054688 205.84375 852.761719 209.5625 852.761719 214.140625 L 852.761719 297.121094 C 852.761719 301.703125 849.054688 305.417969 844.464844 305.417969 Z M 819.570312 288.824219 L 836.167969 288.824219 L 836.167969 222.4375 L 819.570312 222.4375 Z M 819.570312 288.824219 " fill-opacity="1" fill-rule="nonzero"/><g clip-path="url(#7d0ca8fb12)"><path fill="#ffffff" d="M 554.035156 313.71875 C 522.015625 313.71875 495.949219 287.660156 495.949219 255.632812 C 495.949219 223.601562 522.015625 197.546875 554.035156 197.546875 C 586.058594 197.546875 612.121094 223.601562 612.121094 255.632812 C 612.121094 287.660156 586.058594 313.71875 554.035156 313.71875 Z M 554.035156 214.140625 C 531.160156 214.140625 512.546875 232.753906 512.546875 255.632812 C 512.546875 278.507812 531.160156 297.121094 554.035156 297.121094 C 576.914062 297.121094 595.527344 278.507812 595.527344 255.632812 C 595.527344 232.753906 576.914062 214.140625 554.035156 214.140625 Z M 554.035156 214.140625 " fill-opacity="1" fill-rule="nonzero"/></g><path fill="#ffffff" d="M 554.035156 280.523438 C 549.445312 280.523438 545.738281 276.808594 545.738281 272.226562 L 545.738281 239.035156 C 545.738281 234.453125 549.445312 230.738281 554.035156 230.738281 C 558.625 230.738281 562.332031 234.453125 562.332031 239.035156 L 562.332031 272.226562 C 562.332031 276.808594 558.625 280.523438 554.035156 280.523438 Z M 554.035156 280.523438 " fill-opacity="1" fill-rule="nonzero"/><path fill="#ffffff" d="M 570.632812 263.929688 L 537.441406 263.929688 C 532.851562 263.929688 529.140625 260.210938 529.140625 255.632812 C 529.140625 251.050781 532.851562 247.332031 537.441406 247.332031 L 570.632812 247.332031 C 575.21875 247.332031 578.929688 251.050781 578.929688 255.632812 C 578.929688 260.210938 575.21875 263.929688 570.632812 263.929688 Z M 570.632812 263.929688 " fill-opacity="1" fill-rule="nonzero"/><g clip-path="url(#0ec03d9908)"><path fill="#ffffff" d="M 819.570312 670.527344 L 537.441406 670.527344 C 532.851562 670.527344 529.140625 666.820312 529.140625 662.230469 L 529.140625 363.503906 C 529.140625 358.925781 532.851562 355.207031 537.441406 355.207031 L 819.570312 355.207031 C 824.160156 355.207031 827.867188 358.925781 827.867188 363.503906 L 827.867188 662.230469 C 827.867188 666.820312 824.160156 670.527344 819.570312 670.527344 Z M 545.738281 653.933594 L 811.273438 653.933594 L 811.273438 371.800781 L 545.738281 371.800781 Z M 545.738281 653.933594 " fill-opacity="1" fill-rule="nonzero"/></g><g clip-path="url(#11d2328073)"><path fill="#ffffff" d="M 869.359375 670.527344 L 819.570312 670.527344 C 814.980469 670.527344 811.273438 666.820312 811.273438 662.230469 L 811.273438 363.503906 C 811.273438 358.925781 814.980469 355.207031 819.570312 355.207031 L 869.359375 355.207031 C 873.945312 355.207031 877.65625 358.925781 877.65625 363.503906 L 877.65625 662.230469 C 877.65625 666.820312 873.945312 670.527344 869.359375 670.527344 Z M 827.867188 653.933594 L 861.058594 653.933594 L 861.058594 371.800781 L 827.867188 371.800781 Z M 827.867188 653.933594 " fill-opacity="1" fill-rule="nonzero"/></g><path fill="#ffffff" d="M 719.996094 346.910156 C 715.40625 346.910156 711.695312 343.191406 711.695312 338.609375 C 711.695312 320.304688 696.808594 305.417969 678.503906 305.417969 C 660.199219 305.417969 645.3125 320.304688 645.3125 338.609375 C 645.3125 343.191406 641.605469 346.910156 637.015625 346.910156 C 632.425781 346.910156 628.71875 343.191406 628.71875 338.609375 C 628.71875 311.152344 651.046875 288.824219 678.503906 288.824219 C 705.964844 288.824219 728.292969 311.152344 728.292969 338.609375 C 728.292969 343.191406 724.582031 346.910156 719.996094 346.910156 Z M 719.996094 346.910156 " fill-opacity="1" fill-rule="nonzero"/><path fill="#ffffff" d="M 637.015625 404.996094 C 632.425781 404.996094 628.71875 401.277344 628.71875 396.695312 L 628.71875 338.609375 C 628.71875 334.03125 632.425781 330.3125 637.015625 330.3125 C 641.605469 330.3125 645.3125 334.03125 645.3125 338.609375 L 645.3125 396.695312 C 645.3125 401.277344 641.605469 404.996094 637.015625 404.996094 Z M 637.015625 404.996094 " fill-opacity="1" fill-rule="nonzero"/><path fill="#ffffff" d="M 719.996094 404.996094 C 715.40625 404.996094 711.695312 401.277344 711.695312 396.695312 L 711.695312 338.609375 C 711.695312 334.03125 715.40625 330.3125 719.996094 330.3125 C 724.582031 330.3125 728.292969 334.03125 728.292969 338.609375 L 728.292969 396.695312 C 728.292969 401.277344 724.582031 404.996094 719.996094 404.996094 Z M 719.996094 404.996094 " fill-opacity="1" fill-rule="nonzero"/><path fill="#ffffff" d="M 769.78125 346.910156 C 765.195312 346.910156 761.484375 343.191406 761.484375 338.609375 C 761.484375 320.304688 746.597656 305.417969 728.292969 305.417969 C 709.988281 305.417969 695.101562 320.304688 695.101562 338.609375 C 695.101562 343.191406 691.390625 346.910156 686.804688 346.910156 C 682.214844 346.910156 678.503906 343.191406 678.503906 338.609375 C 678.503906 311.152344 700.835938 288.824219 728.292969 288.824219 C 755.75 288.824219 778.082031 311.152344 778.082031 338.609375 C 778.082031 343.191406 774.371094 346.910156 769.78125 346.910156 Z M 769.78125 346.910156 " fill-opacity="1" fill-rule="nonzero"/><path fill="#ffffff" d="M 686.804688 371.800781 C 682.214844 371.800781 678.503906 368.085938 678.503906 363.503906 L 678.503906 338.609375 C 678.503906 334.03125 682.214844 330.3125 686.804688 330.3125 C 691.390625 330.3125 695.101562 334.03125 695.101562 338.609375 L 695.101562 363.503906 C 695.101562 368.085938 691.390625 371.800781 686.804688 371.800781 Z M 686.804688 371.800781 " fill-opacity="1" fill-rule="nonzero"/><path fill="#ffffff" d="M 769.78125 371.800781 C 765.195312 371.800781 761.484375 368.085938 761.484375 363.503906 L 761.484375 338.609375 C 761.484375 334.03125 765.195312 330.3125 769.78125 330.3125 C 774.371094 330.3125 778.082031 334.03125 778.082031 338.609375 L 778.082031 363.503906 C 778.082031 368.085938 774.371094 371.800781 769.78125 371.800781 Z M 769.78125 371.800781 " fill-opacity="1" fill-rule="nonzero"/></svg>