<svg xmlns="http://www.w3.org/2000/svg" xmlns:xlink="http://www.w3.org/1999/xlink" width="1920" zoomAndPan="magnify" viewBox="0 0 1440 809.999993" height="1080" preserveAspectRatio="xMidYMid meet" version="1.0"><path fill="#ffffff" d="M 704.355469 156.21875 C 699.136719 156.175781 694.636719 159.921875 693.710938 165.050781 L 687.820312 197.277344 C 682.773438 198.917969 677.894531 200.894531 673.097656 203.25 L 646.636719 184.152344 C 642.386719 181.082031 636.496094 181.5 632.796875 185.246094 L 609.785156 207.878906 C 606.082031 211.582031 605.535156 217.386719 608.523438 221.675781 L 627.117188 248.601562 C 624.675781 253.355469 622.617188 258.234375 620.972656 263.242188 L 588.707031 268.457031 C 583.535156 269.257812 579.707031 273.714844 579.664062 279.015625 L 579.453125 311.324219 C 579.410156 316.542969 583.15625 321.042969 588.289062 321.96875 L 620.636719 327.859375 C 622.238281 332.863281 624.257812 337.703125 626.613281 342.457031 L 607.386719 369.042969 C 604.316406 373.292969 604.734375 379.183594 608.4375 382.925781 L 631.15625 405.894531 C 634.816406 409.597656 640.621094 410.144531 644.910156 407.160156 L 672.171875 388.394531 C 676.882812 390.792969 681.722656 392.769531 686.6875 394.410156 L 692.238281 427.058594 C 693.121094 432.230469 697.539062 436.015625 702.796875 436.058594 L 735.066406 436.226562 C 740.367188 436.269531 744.867188 432.441406 745.75 427.265625 L 751.261719 394.664062 C 756.183594 393.066406 760.980469 391.128906 765.648438 388.773438 L 792.699219 408 C 796.992188 411.027344 802.796875 410.523438 806.496094 406.863281 L 829.507812 384.1875 C 833.253906 380.488281 833.757812 374.597656 830.6875 370.265625 L 811.503906 343.339844 C 813.902344 338.671875 815.921875 333.917969 817.5625 329.035156 L 850.332031 323.484375 C 855.464844 322.601562 859.253906 318.140625 859.292969 312.882812 L 859.460938 280.617188 C 859.503906 275.355469 855.71875 270.855469 850.5 269.972656 L 818.023438 264.460938 C 816.425781 259.496094 814.449219 254.660156 812.136719 249.90625 L 831.234375 222.9375 C 834.304688 218.691406 833.84375 212.882812 830.140625 209.140625 L 807.421875 186.171875 C 803.722656 182.46875 797.832031 181.921875 793.539062 184.992188 L 766.867188 203.925781 C 762.15625 201.527344 757.363281 199.507812 752.441406 197.867188 L 747.222656 165.472656 C 746.382812 160.257812 741.921875 156.429688 736.621094 156.386719 Z M 713.273438 177.800781 L 727.410156 177.882812 L 732.078125 206.996094 C 732.75 211.242188 735.90625 214.652344 740.027344 215.703125 C 747.9375 217.722656 755.550781 220.960938 762.703125 225.296875 C 766.363281 227.566406 771.035156 227.398438 774.527344 224.917969 L 798.546875 207.878906 L 808.476562 217.890625 L 791.183594 242.121094 C 788.746094 245.613281 788.535156 250.199219 790.722656 253.859375 C 794.972656 261.054688 798.085938 268.710938 799.933594 276.578125 C 800.945312 280.785156 804.351562 283.980469 808.644531 284.738281 L 837.882812 289.660156 L 837.796875 303.753906 L 808.265625 308.71875 C 804.058594 309.433594 800.648438 312.585938 799.597656 316.710938 C 797.621094 324.535156 794.464844 332.109375 790.132812 339.175781 C 787.902344 342.878906 788.070312 347.546875 790.597656 351.039062 L 807.800781 375.3125 L 797.832031 385.199219 L 773.390625 367.867188 C 769.898438 365.382812 765.3125 365.214844 761.652344 367.402344 C 754.5 371.652344 746.929688 374.679688 739.0625 376.617188 C 734.855469 377.625 731.699219 381.035156 730.984375 385.28125 L 726.019531 414.648438 L 711.96875 414.519531 L 707.003906 385.070312 C 706.289062 380.867188 703.136719 377.457031 698.929688 376.449219 C 691.144531 374.511719 683.488281 371.316406 676.335938 367.023438 C 672.71875 364.835938 668.132812 364.964844 664.640625 367.402344 L 640.117188 384.316406 L 630.1875 374.261719 L 647.476562 350.367188 C 650.003906 346.875 650.210938 342.203125 647.984375 338.503906 C 643.734375 331.308594 640.621094 323.652344 638.683594 315.742188 C 637.675781 311.621094 634.351562 308.464844 630.144531 307.664062 L 601.035156 302.40625 L 601.160156 288.273438 L 630.144531 283.601562 C 634.394531 282.929688 637.84375 279.773438 638.894531 275.609375 C 640.914062 267.660156 644.070312 260 648.445312 252.851562 C 650.675781 249.230469 650.550781 244.605469 648.109375 241.113281 L 631.40625 216.882812 L 641.421875 206.953125 L 665.230469 224.117188 C 668.679688 226.640625 673.308594 226.851562 677.011719 224.707031 C 684.246094 220.371094 691.945312 217.300781 699.894531 215.367188 C 704.058594 214.398438 707.214844 211.035156 707.972656 206.867188 Z M 719.332031 242.753906 C 705.492188 242.667969 691.609375 247.84375 681.046875 258.320312 C 659.929688 279.183594 659.761719 313.554688 680.628906 334.714844 C 701.496094 355.835938 735.90625 356.003906 757.023438 335.136719 C 778.144531 314.269531 778.3125 279.859375 757.445312 258.738281 C 747.011719 248.179688 733.171875 242.835938 719.332031 242.753906 Z M 719.246094 264.167969 C 727.535156 264.207031 735.78125 267.449219 742.132812 273.882812 C 754.835938 286.714844 754.710938 307.117188 741.878906 319.78125 C 729.050781 332.484375 708.644531 332.402344 695.941406 319.570312 C 683.238281 306.699219 683.363281 286.292969 696.195312 273.632812 C 702.628906 267.28125 710.917969 264.125 719.246094 264.167969 Z M 605.535156 436.226562 C 577.433594 436.226562 564.476562 442.957031 550.507812 448.34375 C 550.507812 448.386719 550.507812 448.386719 550.507812 448.386719 C 523.710938 458.820312 477.855469 480.441406 477.855469 480.441406 C 472.472656 482.964844 470.15625 489.402344 472.683594 494.789062 C 475.25 500.171875 481.683594 502.484375 487.070312 499.960938 C 487.070312 499.960938 533.21875 478.210938 558.292969 468.453125 C 573.773438 462.4375 580.503906 457.765625 605.535156 457.765625 C 660.773438 457.765625 658.542969 481.746094 681.847656 495.460938 C 682.183594 495.671875 682.5625 495.882812 682.941406 496.007812 C 711.84375 508.964844 742.890625 511.613281 767.921875 511.613281 C 778.984375 511.613281 785.96875 514.179688 789.753906 517.042969 C 793.5 519.945312 794.84375 522.929688 794.84375 527.769531 C 794.84375 533.449219 793.414062 536.140625 789.671875 538.875 C 785.96875 541.566406 778.816406 543.925781 767.921875 543.925781 L 711.378906 543.925781 C 687.652344 543.925781 646.804688 533.492188 646.804688 533.492188 C 643.101562 532.480469 639.105469 533.574219 636.371094 536.308594 C 633.636719 539.042969 632.585938 543.039062 633.59375 546.742188 C 634.648438 550.488281 637.589844 553.390625 641.335938 554.355469 C 641.335938 554.355469 681.847656 565.464844 711.378906 565.464844 L 767.921875 565.464844 C 778.902344 565.464844 788.449219 563.652344 796.445312 559.699219 C 797.496094 559.40625 798.503906 558.941406 799.386719 558.3125 L 901.53125 491.296875 C 916.886719 482.417969 927.363281 479.9375 933.503906 480.019531 C 939.644531 480.148438 941.75 482 943.601562 484.355469 C 946.335938 487.886719 946.503906 489.234375 944.734375 493.316406 C 942.925781 497.4375 937.667969 503.789062 928.203125 510.351562 C 928.203125 510.351562 928.203125 510.351562 928.160156 510.351562 C 916.464844 518.515625 785.671875 603.746094 770.570312 612.328125 C 759.171875 618.804688 750.125 625.621094 739.820312 628.523438 C 729.511719 631.386719 717.355469 631.386719 697.246094 621.792969 C 683.824219 615.355469 626.695312 586.078125 608.1875 576.695312 C 597.878906 571.480469 589.085938 568.535156 580.125 569.039062 C 571.125 569.542969 563.507812 573.371094 555.640625 578.335938 C 555.601562 578.335938 555.558594 578.378906 555.558594 578.421875 L 528.886719 595.457031 C 525.519531 597.476562 523.542969 601.179688 523.667969 605.09375 C 523.796875 609.003906 526.066406 612.539062 529.558594 614.304688 C 533.09375 616.070312 537.257812 615.820312 540.496094 613.589844 L 567.042969 596.59375 C 573.898438 592.304688 577.769531 590.746094 581.304688 590.535156 C 584.835938 590.324219 589.675781 591.460938 598.46875 595.921875 C 616.808594 605.21875 673.054688 634.078125 687.988281 641.1875 C 711.421875 652.417969 730.394531 653.472656 745.582031 649.265625 C 760.769531 645.015625 771.582031 636.515625 781.214844 631.046875 C 801.996094 619.226562 925.46875 538.453125 940.488281 528.023438 C 951.886719 520.070312 960.257812 511.785156 964.507812 501.855469 C 968.757812 491.925781 967.367188 479.8125 960.597656 471.144531 C 960.597656 471.144531 960.597656 471.144531 960.597656 471.101562 C 955.253906 464.289062 945.789062 458.734375 933.882812 458.480469 C 927.109375 458.355469 919.578125 459.914062 911.207031 462.984375 C 909.652344 460.921875 907.292969 458.230469 904.054688 455.875 C 897.785156 451.203125 887.816406 446.996094 874.269531 446.996094 C 867.328125 446.996094 861.648438 448.597656 857.105469 450.488281 C 850.628906 444.304688 839.144531 436.4375 822.441406 436.4375 C 808.894531 436.4375 796.191406 440.980469 787.355469 446.199219 C 785.714844 447.164062 781.761719 449.648438 775.03125 453.855469 C 768.300781 458.0625 759.507812 463.488281 750.839844 468.914062 C 737 477.539062 728.417969 482.925781 723.453125 486.039062 C 712.894531 483.933594 702.335938 480.945312 692.367188 476.570312 C 683.867188 471.101562 667.503906 436.226562 605.535156 436.226562 Z M 822.441406 457.976562 C 829.257812 457.976562 834.136719 459.703125 837.585938 461.722656 L 787.777344 492.601562 C 781.84375 490.917969 775.199219 490.074219 767.921875 490.074219 C 764.808594 490.074219 761.398438 489.867188 758.160156 489.738281 C 760.179688 488.476562 760.179688 488.476562 762.242188 487.214844 C 770.90625 481.789062 779.65625 476.320312 786.429688 472.113281 C 793.160156 467.949219 798.671875 464.539062 798.292969 464.75 C 803.386719 461.722656 814.449219 457.976562 822.441406 457.976562 Z M 874.269531 468.535156 C 883.019531 468.535156 887.734375 470.765625 890.59375 472.742188 C 890.425781 472.828125 890.300781 472.910156 890.128906 473.039062 L 815.710938 521.835938 C 814.703125 515.820312 812.21875 510.058594 808.265625 505.261719 L 860.304688 472.996094 L 860.347656 472.910156 C 860.765625 472.703125 869.769531 468.535156 874.269531 468.535156 Z M 874.269531 468.535156 " fill-opacity="1" fill-rule="nonzero"/></svg>