<svg xmlns="http://www.w3.org/2000/svg" xmlns:xlink="http://www.w3.org/1999/xlink" width="1920" zoomAndPan="magnify" viewBox="0 0 1440 809.999993" height="1080" preserveAspectRatio="xMidYMid meet" version="1.0"><defs><clipPath id="8da9a73d78"><path d="M 483 185 L 960.558594 185 L 960.558594 625.460938 L 483 625.460938 Z M 483 185 " clip-rule="nonzero"/></clipPath></defs><g clip-path="url(#8da9a73d78)"><path fill="#000000" d="M 494.921875 625.492188 C 494.53125 625.492188 494.132812 625.460938 493.738281 625.398438 C 490.667969 624.898438 488.242188 622.53125 487.675781 619.476562 C 486.867188 615.125 479.980469 575.515625 487.089844 524.851562 C 491.136719 496.027344 498.9375 468.738281 510.277344 443.746094 C 524.320312 412.792969 543.878906 385.226562 568.410156 361.808594 C 622.941406 309.746094 686.371094 292.34375 732.167969 287.191406 L 732.167969 192.414062 C 732.167969 189.472656 733.917969 186.816406 736.621094 185.652344 C 739.324219 184.488281 742.457031 185.042969 744.597656 187.058594 L 958.046875 388.3125 C 959.523438 389.703125 960.359375 391.640625 960.359375 393.667969 C 960.359375 395.695312 959.523438 397.632812 958.046875 399.023438 L 744.597656 600.285156 C 742.457031 602.304688 739.324219 602.859375 736.621094 601.691406 C 733.917969 600.527344 732.167969 597.871094 732.167969 594.929688 L 732.167969 482.503906 C 690.511719 483.339844 650.960938 493.21875 614.488281 511.902344 C 550.992188 544.4375 516.359375 594.660156 501.367188 621.699219 C 500.054688 624.066406 497.570312 625.492188 494.921875 625.492188 Z M 494.921875 625.492188 " fill-opacity="1" fill-rule="nonzero"/></g></svg>