<svg xmlns="http://www.w3.org/2000/svg" xmlns:xlink="http://www.w3.org/1999/xlink" width="1920" zoomAndPan="magnify" viewBox="0 0 1440 809.999993" height="1080" preserveAspectRatio="xMidYMid meet" version="1.0"><path fill="#000000" d="M 852.53125 283.511719 C 852.53125 285.695312 852.480469 287.878906 852.371094 290.058594 C 852.265625 292.242188 852.105469 294.417969 851.890625 296.59375 C 851.675781 298.765625 851.410156 300.933594 851.089844 303.09375 C 850.769531 305.253906 850.394531 307.40625 849.96875 309.550781 C 849.542969 311.691406 849.0625 313.820312 848.53125 315.941406 C 848.003906 318.058594 847.417969 320.164062 846.785156 322.253906 C 846.152344 324.34375 845.46875 326.417969 844.730469 328.472656 C 843.996094 330.53125 843.210938 332.566406 842.375 334.585938 C 841.539062 336.605469 840.652344 338.601562 839.71875 340.574219 C 838.785156 342.550781 837.804688 344.5 836.773438 346.425781 C 835.742188 348.351562 834.667969 350.25 833.542969 352.125 C 832.421875 354 831.253906 355.84375 830.039062 357.660156 C 828.828125 359.476562 827.570312 361.261719 826.269531 363.015625 C 824.964844 364.769531 823.625 366.492188 822.238281 368.179688 C 820.851562 369.867188 819.425781 371.519531 817.957031 373.140625 C 816.492188 374.757812 814.988281 376.339844 813.441406 377.882812 C 811.898438 379.429688 810.316406 380.933594 808.699219 382.402344 C 807.078125 383.867188 805.425781 385.292969 803.738281 386.679688 C 802.046875 388.066406 800.328125 389.410156 798.574219 390.710938 C 796.820312 392.011719 795.03125 393.269531 793.21875 394.480469 C 791.402344 395.695312 789.554688 396.863281 787.683594 397.988281 C 785.808594 399.109375 783.910156 400.1875 781.984375 401.214844 C 780.054688 402.246094 778.105469 403.226562 776.132812 404.160156 C 774.15625 405.09375 772.160156 405.980469 770.144531 406.816406 C 768.125 407.652344 766.085938 408.4375 764.03125 409.171875 C 761.972656 409.910156 759.902344 410.59375 757.8125 411.226562 C 755.71875 411.863281 753.617188 412.445312 751.496094 412.976562 C 749.378906 413.503906 747.246094 413.984375 745.105469 414.410156 C 742.964844 414.835938 740.8125 415.210938 738.652344 415.53125 C 736.492188 415.851562 734.324219 416.117188 732.148438 416.332031 C 729.976562 416.546875 727.796875 416.707031 725.617188 416.8125 C 723.433594 416.921875 721.253906 416.976562 719.066406 416.976562 C 716.882812 416.976562 714.699219 416.921875 712.519531 416.8125 C 710.335938 416.707031 708.160156 416.546875 705.984375 416.332031 C 703.8125 416.117188 701.644531 415.851562 699.484375 415.53125 C 697.324219 415.210938 695.171875 414.835938 693.03125 414.410156 C 690.886719 413.984375 688.757812 413.503906 686.640625 412.976562 C 684.519531 412.445312 682.414062 411.863281 680.324219 411.226562 C 678.234375 410.59375 676.160156 409.910156 674.105469 409.171875 C 672.046875 408.4375 670.011719 407.652344 667.992188 406.816406 C 665.976562 405.980469 663.980469 405.09375 662.003906 404.160156 C 660.03125 403.226562 658.078125 402.246094 656.152344 401.214844 C 654.226562 400.1875 652.328125 399.109375 650.453125 397.988281 C 648.578125 396.863281 646.734375 395.695312 644.917969 394.480469 C 643.101562 393.269531 641.316406 392.011719 639.5625 390.710938 C 637.808594 389.410156 636.085938 388.066406 634.398438 386.679688 C 632.710938 385.292969 631.058594 383.867188 629.4375 382.402344 C 627.820312 380.933594 626.238281 379.429688 624.695312 377.882812 C 623.148438 376.339844 621.644531 374.757812 620.175781 373.140625 C 618.710938 371.519531 617.285156 369.867188 615.898438 368.179688 C 614.511719 366.492188 613.167969 364.769531 611.867188 363.015625 C 610.566406 361.261719 609.308594 359.476562 608.097656 357.660156 C 606.882812 355.84375 605.714844 354 604.589844 352.125 C 603.46875 350.25 602.390625 348.351562 601.363281 346.425781 C 600.332031 344.5 599.351562 342.550781 598.417969 340.574219 C 597.484375 338.601562 596.597656 336.605469 595.761719 334.585938 C 594.925781 332.566406 594.140625 330.53125 593.40625 328.472656 C 592.667969 326.417969 591.984375 324.34375 591.351562 322.253906 C 590.714844 320.164062 590.132812 318.058594 589.601562 315.941406 C 589.074219 313.820312 588.59375 311.691406 588.167969 309.550781 C 587.742188 307.40625 587.367188 305.253906 587.046875 303.09375 C 586.726562 300.933594 586.460938 298.765625 586.246094 296.59375 C 586.03125 294.417969 585.871094 292.242188 585.765625 290.058594 C 585.65625 287.878906 585.601562 285.695312 585.601562 283.511719 C 585.601562 281.328125 585.65625 279.144531 585.765625 276.964844 C 585.871094 274.78125 586.03125 272.605469 586.246094 270.429688 C 586.460938 268.257812 586.726562 266.089844 587.046875 263.929688 C 587.367188 261.769531 587.742188 259.617188 588.167969 257.472656 C 588.59375 255.332031 589.074219 253.203125 589.601562 251.082031 C 590.132812 248.964844 590.714844 246.859375 591.351562 244.769531 C 591.984375 242.679688 592.667969 240.605469 593.40625 238.550781 C 594.140625 236.492188 594.925781 234.457031 595.761719 232.4375 C 596.597656 230.417969 597.484375 228.421875 598.417969 226.449219 C 599.351562 224.472656 600.332031 222.523438 601.363281 220.597656 C 602.390625 218.671875 603.46875 216.769531 604.589844 214.898438 C 605.714844 213.023438 606.882812 211.179688 608.097656 209.363281 C 609.308594 207.546875 610.566406 205.761719 611.867188 204.007812 C 613.167969 202.253906 614.511719 200.53125 615.898438 198.84375 C 617.285156 197.15625 618.710938 195.5 620.175781 193.882812 C 621.644531 192.265625 623.148438 190.683594 624.695312 189.140625 C 626.238281 187.59375 627.820312 186.089844 629.4375 184.621094 C 631.058594 183.15625 632.710938 181.730469 634.398438 180.34375 C 636.085938 178.957031 637.808594 177.613281 639.5625 176.3125 C 641.316406 175.011719 643.101562 173.753906 644.917969 172.542969 C 646.734375 171.328125 648.578125 170.160156 650.453125 169.035156 C 652.328125 167.914062 654.226562 166.835938 656.152344 165.808594 C 658.078125 164.777344 660.03125 163.796875 662.003906 162.863281 C 663.980469 161.929688 665.976562 161.042969 667.992188 160.207031 C 670.011719 159.371094 672.046875 158.585938 674.105469 157.851562 C 676.160156 157.113281 678.234375 156.429688 680.324219 155.796875 C 682.414062 155.160156 684.519531 154.578125 686.640625 154.046875 C 688.757812 153.519531 690.886719 153.039062 693.03125 152.613281 C 695.171875 152.1875 697.324219 151.8125 699.484375 151.492188 C 701.644531 151.171875 703.8125 150.90625 705.984375 150.691406 C 708.160156 150.476562 710.335938 150.316406 712.519531 150.210938 C 714.699219 150.101562 716.882812 150.046875 719.066406 150.046875 C 721.253906 150.046875 723.433594 150.101562 725.617188 150.210938 C 727.796875 150.316406 729.976562 150.476562 732.148438 150.691406 C 734.324219 150.90625 736.492188 151.171875 738.652344 151.492188 C 740.8125 151.8125 742.964844 152.1875 745.105469 152.613281 C 747.246094 153.039062 749.378906 153.519531 751.496094 154.046875 C 753.617188 154.578125 755.71875 155.160156 757.8125 155.796875 C 759.902344 156.429688 761.972656 157.113281 764.03125 157.851562 C 766.085938 158.585938 768.125 159.371094 770.144531 160.207031 C 772.160156 161.042969 774.15625 161.929688 776.132812 162.863281 C 778.105469 163.796875 780.054688 164.777344 781.984375 165.808594 C 783.910156 166.835938 785.808594 167.914062 787.683594 169.035156 C 789.554688 170.160156 791.402344 171.328125 793.21875 172.542969 C 795.03125 173.753906 796.820312 175.011719 798.574219 176.3125 C 800.328125 177.613281 802.046875 178.957031 803.738281 180.34375 C 805.425781 181.730469 807.078125 183.15625 808.699219 184.621094 C 810.316406 186.089844 811.898438 187.59375 813.441406 189.140625 C 814.988281 190.683594 816.492188 192.265625 817.957031 193.882812 C 819.425781 195.5 820.851562 197.15625 822.238281 198.84375 C 823.625 200.53125 824.964844 202.253906 826.269531 204.007812 C 827.570312 205.761719 828.828125 207.546875 830.039062 209.363281 C 831.253906 211.179688 832.421875 213.023438 833.542969 214.898438 C 834.667969 216.769531 835.742188 218.671875 836.773438 220.597656 C 837.804688 222.523438 838.785156 224.472656 839.71875 226.449219 C 840.652344 228.421875 841.539062 230.417969 842.375 232.4375 C 843.210938 234.457031 843.996094 236.492188 844.730469 238.550781 C 845.464844 240.605469 846.152344 242.679688 846.785156 244.769531 C 847.417969 246.859375 848.003906 248.964844 848.53125 251.082031 C 849.0625 253.203125 849.542969 255.332031 849.96875 257.472656 C 850.394531 259.617188 850.769531 261.769531 851.089844 263.929688 C 851.410156 266.089844 851.675781 268.257812 851.890625 270.429688 C 852.105469 272.605469 852.265625 274.78125 852.371094 276.964844 C 852.480469 279.144531 852.53125 281.328125 852.53125 283.511719 Z M 852.53125 283.511719 " fill-opacity="1" fill-rule="nonzero"/><path fill="#000000" d="M 539.699219 658.070312 L 898.4375 658.070312 C 899.738281 658.054688 901.035156 658 902.335938 657.910156 C 903.632812 657.816406 904.925781 657.683594 906.21875 657.515625 C 907.507812 657.34375 908.792969 657.136719 910.070312 656.890625 C 911.347656 656.644531 912.617188 656.359375 913.875 656.035156 C 915.136719 655.710938 916.386719 655.351562 917.625 654.953125 C 918.867188 654.554688 920.089844 654.121094 921.304688 653.648438 C 922.519531 653.179688 923.714844 652.671875 924.898438 652.128906 C 926.082031 651.585938 927.246094 651.007812 928.394531 650.394531 C 929.542969 649.78125 930.671875 649.132812 931.78125 648.453125 C 932.890625 647.773438 933.976562 647.058594 935.042969 646.3125 C 936.109375 645.566406 937.152344 644.792969 938.171875 643.984375 C 939.191406 643.175781 940.1875 642.335938 941.15625 641.46875 C 942.125 640.601562 943.070312 639.703125 943.984375 638.78125 C 944.902344 637.855469 945.789062 636.90625 946.648438 635.925781 C 947.507812 634.949219 948.335938 633.945312 949.132812 632.917969 C 949.933594 631.890625 950.699219 630.84375 951.4375 629.769531 C 952.171875 628.695312 952.875 627.601562 953.546875 626.484375 C 954.21875 625.371094 954.851562 624.234375 955.457031 623.082031 C 956.058594 621.929688 956.625 620.757812 957.15625 619.570312 C 957.691406 618.382812 958.1875 617.179688 958.644531 615.964844 C 959.105469 614.746094 959.53125 613.515625 959.917969 612.273438 C 960.300781 611.03125 960.652344 609.777344 960.960938 608.515625 C 961.273438 607.25 961.546875 605.980469 961.78125 604.699219 C 962.019531 603.417969 962.214844 602.132812 962.371094 600.84375 C 962.53125 599.550781 962.648438 598.253906 962.730469 596.957031 C 962.8125 595.65625 962.851562 594.355469 962.855469 593.054688 C 962.855469 591.753906 962.820312 590.453125 962.746094 589.15625 C 962.671875 587.855469 962.554688 586.558594 962.402344 585.269531 C 962.25 583.976562 962.058594 582.6875 961.828125 581.40625 C 961.597656 580.128906 961.328125 578.855469 961.023438 577.589844 C 960.71875 576.324219 960.375 575.070312 959.992188 573.828125 C 959.609375 572.582031 959.191406 571.351562 958.734375 570.132812 C 956.886719 565.457031 954.867188 560.855469 952.671875 556.332031 C 950.480469 551.804688 948.121094 547.371094 945.59375 543.023438 C 943.070312 538.675781 940.386719 534.429688 937.542969 530.28125 C 934.699219 526.136719 931.703125 522.101562 928.558594 518.179688 C 925.410156 514.257812 922.125 510.457031 918.691406 506.78125 C 915.261719 503.105469 911.699219 499.5625 908.003906 496.152344 C 904.308594 492.746094 900.488281 489.476562 896.546875 486.355469 C 892.609375 483.234375 888.554688 480.261719 884.394531 477.441406 C 880.230469 474.621094 875.96875 471.960938 871.605469 469.460938 C 867.242188 466.960938 862.792969 464.628906 858.253906 462.460938 C 853.71875 460.296875 849.105469 458.300781 844.417969 456.480469 C 839.734375 454.660156 834.984375 453.015625 830.175781 451.550781 C 825.367188 450.082031 820.507812 448.800781 815.601562 447.699219 C 810.695312 446.597656 805.757812 445.679688 800.78125 444.949219 C 795.808594 444.214844 790.8125 443.671875 785.796875 443.3125 C 780.78125 442.957031 775.761719 442.789062 770.730469 442.804688 L 667.40625 442.804688 C 662.378906 442.804688 657.363281 442.992188 652.351562 443.363281 C 647.339844 443.734375 642.351562 444.292969 637.382812 445.039062 C 632.414062 445.78125 627.480469 446.710938 622.578125 447.824219 C 617.679688 448.933594 612.828125 450.226562 608.023438 451.699219 C 603.222656 453.171875 598.480469 454.824219 593.796875 456.648438 C 589.117188 458.476562 584.511719 460.472656 579.980469 462.640625 C 575.445312 464.8125 571.003906 467.144531 566.644531 469.644531 C 562.285156 472.144531 558.027344 474.804688 553.867188 477.621094 C 549.707031 480.4375 545.65625 483.40625 541.71875 486.527344 C 537.777344 489.644531 533.960938 492.90625 530.265625 496.308594 C 526.570312 499.714844 523.003906 503.25 519.570312 506.917969 C 516.140625 510.585938 512.847656 514.378906 509.695312 518.292969 C 506.546875 522.207031 503.546875 526.230469 500.695312 530.367188 C 497.84375 534.503906 495.152344 538.742188 492.617188 543.082031 C 490.082031 547.417969 487.710938 551.84375 485.503906 556.359375 C 483.300781 560.875 481.265625 565.464844 479.402344 570.128906 C 478.945312 571.347656 478.527344 572.582031 478.144531 573.824219 C 477.761719 575.070312 477.417969 576.324219 477.113281 577.589844 C 476.804688 578.851562 476.535156 580.125 476.304688 581.40625 C 476.078125 582.6875 475.882812 583.972656 475.730469 585.265625 C 475.578125 586.558594 475.464844 587.855469 475.386719 589.152344 C 475.3125 590.453125 475.277344 591.753906 475.277344 593.054688 C 475.28125 594.355469 475.320312 595.65625 475.402344 596.957031 C 475.480469 598.253906 475.601562 599.550781 475.757812 600.84375 C 475.917969 602.132812 476.113281 603.417969 476.347656 604.699219 C 476.582031 605.980469 476.855469 607.25 477.167969 608.515625 C 477.480469 609.777344 477.828125 611.03125 478.214844 612.273438 C 478.601562 613.519531 479.023438 614.746094 479.484375 615.964844 C 479.945312 617.183594 480.441406 618.386719 480.972656 619.574219 C 481.503906 620.761719 482.070312 621.929688 482.675781 623.085938 C 483.277344 624.238281 483.914062 625.375 484.582031 626.488281 C 485.253906 627.605469 485.957031 628.699219 486.691406 629.773438 C 487.429688 630.84375 488.195312 631.894531 488.996094 632.921875 C 489.792969 633.949219 490.625 634.953125 491.484375 635.929688 C 492.339844 636.910156 493.230469 637.859375 494.144531 638.785156 C 495.0625 639.707031 496.003906 640.605469 496.972656 641.472656 C 497.945312 642.339844 498.9375 643.179688 499.957031 643.988281 C 500.980469 644.796875 502.023438 645.574219 503.089844 646.316406 C 504.15625 647.0625 505.242188 647.777344 506.351562 648.457031 C 507.460938 649.136719 508.589844 649.785156 509.738281 650.398438 C 510.886719 651.011719 512.050781 651.589844 513.234375 652.132812 C 514.417969 652.675781 515.617188 653.183594 516.828125 653.652344 C 518.042969 654.125 519.269531 654.558594 520.507812 654.957031 C 521.746094 655.355469 522.996094 655.714844 524.257812 656.039062 C 525.519531 656.359375 526.789062 656.644531 528.066406 656.890625 C 529.34375 657.136719 530.628906 657.347656 531.917969 657.515625 C 533.207031 657.6875 534.503906 657.816406 535.800781 657.910156 C 537.097656 658 538.398438 658.054688 539.699219 658.070312 Z M 539.699219 658.070312 " fill-opacity="1" fill-rule="nonzero"/></svg>